# AST/ASF file generated using VICON BodyLanguage
# -----------------------------------------------
:version 1.10
:name VICON
:units
  mass 1.0
  length 0.45
  angle deg
:documentation
   .ast/.asf automatically generated from VICON data using
   VICON BodyBuilder and BodyLanguage model FoxedUp or BRILLIANT.MOD
:root
   order TX TY TZ RX RY RZ
   axis XYZ
   position 0 0 0  
   orientation 0 0 0 
:bonedata
  begin
     id 1 
     name lhipjoint
     direction 0.578396 -0.714046 0.394458 
     length 2.21935 
     axis 0 0 0  XYZ
  end
  begin
     id 2 
     name lfemur
     direction 0.34202 -0.939693 0  
     length 6.39105  
     axis 0 0 20  XYZ
    dof rx ry rz
    limits (-160.0 20.0)
           (-70.0 70.0)
           (-60.0 70.0)
  end
  begin
     id 3 
     name ltibia
     direction 0.34202 -0.939693 0   
     length 6.99037   
     axis 0 0 20   XYZ
    dof rx
    limits (-10.0 170.0)
  end
  begin
     id 4 
     name lfoot
     direction 0.0582372 -0.160005 0.985397   
     length 2.06111   
     axis -90 7.62852e-016 20   XYZ
    dof rx rz
    limits (-45.0 90.0)
           (-70.0 20.0)
  end
  begin
     id 5 
     name ltoes
     direction 1.53556e-011 -4.21875e-011 1   
     length 1.04074   
     axis -90 7.62852e-016 20   XYZ
    dof rx
    limits (-90.0 20.0)
  end
  begin
     id 6 
     name rhipjoint
     direction -0.558179 -0.726269 0.40121   
     length 2.182  
     axis 0 0 0  XYZ 
  end
  begin
     id 7 
     name rfemur
     direction -0.34202 -0.939693 0   
     length 6.51172   
     axis 0 0 -20   XYZ
    dof rx ry rz
    limits (-160.0 20.0)
           (-70.0 70.0)
           (-70.0 60.0)
  end
  begin
     id 8 
     name rtibia
     direction -0.34202 -0.939693 0   
     length 7.02607   
     axis 0 0 -20   XYZ
    dof rx
    limits (-10.0 170.0)
 end
 begin
     id 9 
     name rfoot
     direction -0.0788856 -0.216737 0.973038   
     length 1.96734  
     axis -90 -7.62852e-016 -20   XYZ
    dof rx rz
    limits (-45.0 90.0)
           (-20.0 70.0)
  end
  begin
     id 10 
     name rtoes
     direction -1.53567e-011 -4.21783e-011 1   
     length 0.990825   
     axis -90 -7.62852e-016 -20   XYZ
    dof rx
    limits (-90.0 20.0)
  end
  begin
     id 11 
     name lowerback
     direction 0.00668177 0.999323 -0.0361741   
     length 1.7655   
     axis 0 0 0   XYZ
    dof rx ry rz
    limits (-20.0 45.0)
           (-30.0 30.0)
           (-30.0 30.0)
  end
  begin
     id 12 
     name upperback
     direction -0.00222086 0.99851 0.0545167   
     length 1.74912   
     axis 0 0 0   XYZ
    dof rx ry rz
    limits (-20.0 45.0)
           (-30.0 30.0)
           (-30.0 30.0)
  end
  begin
     id 13 
     name thorax
     direction -0.00733971 0.997496 0.0703443   
     length 1.75715   
     axis 0 0 0   XYZ
    dof rx ry rz
    limits (-20.0 45.0)
           (-30.0 30.0)
           (-30.0 30.0)
  end
  begin
     id 14 
     name lowerneck
     direction 0.0279797 0.994795 0.0979765   
     length 1.46939   
     axis 0 0 0   XYZ
    dof rx ry rz
    limits (-20.0 45.0)
           (-30.0 30.0)
           (-30.0 30.0)
  end
  begin
     id 15 
     name upperneck
     direction 0.00339187 0.976776 -0.214238   
     length 1.48018   
     axis 0 0 0   XYZ
    dof rx ry rz
    limits (-20.0 45.0)
           (-30.0 30.0)
           (-30.0 30.0)
  end
  begin
     id 16
     name head
     direction -0.00263506 0.996603 -0.0823096  
     length 1.4976  
     axis 0 0 0   XYZ
    dof rx ry rz
    limits (-20.0 45.0)
           (-30.0 30.0)
           (-30.0 30.0)
  end
  begin
     id 17 
     name lclavicle
     direction 0.894044 0.44508 -0.0508781  
     length 3.03024  
     axis 0 0 0   XYZ
    dof ry rz
    limits (-20.0 10.0)
           (0.0 20.0)
  end
  begin
     id 18 
     name lhumerus
     direction 1 -4.48961e-011 -2.39475e-018   
     length 4.4661   
     axis 180 -30 -90   XYZ
    dof rx ry rz
    limits (-60.0 90.0)
           (-90.0 90.0)
           (-90.0 90.0)
  end
  begin
     id 19
     name lradius
     direction 1 -4.48961e-011 9.29328e-028   
     length 3.41414   
     axis 180 -30 -90   XYZ
    dof rx
    limits (-10.0 170.0)
  end
  begin
     id 20
     name lwrist
     direction 1 -4.48985e-011 1.53461e-026   
     length 1.70707   
     axis -1.09697e-014 90 90   XYZ
    dof ry
    limits (-180.0 0.0)
 end
  begin
     id 21 
     name lhand
     direction 1 -4.48966e-011 3.06923e-026   
     length 0.328298   
     axis -1.95843e-014 90 90   XYZ
    dof rx rz
    limits (-90.0 90.0)
           (-45.0 45.0)
  end
  begin
     id 22 
     name lfingers
     direction 1 -4.48893e-011 6.13845e-026   
     length 0.264682   
     axis -3.91686e-014 90 90   XYZ
    dof rx
    limits (0.0 90.0)
  end
  begin
     id 23
     name lthumb
     direction 0.707107 -6.34876e-011 0.707107   
     length 0.380032   
     axis -90 45 2.85299e-015   XYZ
    dof rx rz
    limits (-45.0 45.0)
           (-45.0 45.0)
  end
  begin
     id 24 
     name rclavicle
     direction -0.936955 0.347862 -0.0332887   
     length 3.26927  
     axis 0 0 0   XYZ 
    dof ry rz
    limits (-10.0 20.0)
           (-20.0 0.0)
  end
  begin
     id 25 
     name rhumerus
     direction -1 -4.4896e-011 1.78637e-018  
     length 4.40431   
     axis 180 30 90   XYZ
    dof rx ry rz
    limits (-90.0 60.0)
           (-90.0 90.0)
           (-90.0 90.0)
  end
  begin
     id 26 
     name rradius
     direction -1 -4.48955e-011 9.34036e-027   
     length 3.04688   
     axis 180 30 90   XYZ
    dof rx
    limits (-10.0 170.0)
  end
  begin
     id 27 
     name rwrist
     direction -1 -4.49011e-011 1.53461e-026   
     length 1.52344   
     axis -1.09697e-014 -90 -90   XYZ
    dof ry
    limits (-180.0 0.0)
  end
  begin
     id 28
     name rhand
     direction -1 -4.48834e-011 3.06923e-026   
     length 0.500489   
     axis -1.95843e-014 -90 -90   XYZ
    dof rx rz
    limits (-90.0 90.0)
           (-45.0 45.0)
  end
  begin
     id 29
     name rfingers
     direction -1 -4.48967e-011 6.13845e-026   
     length 0.403507   
     axis -3.91686e-014 -90 -90   XYZ
    dof rx
    limits (0.0 90.0)
  end
  begin
     id 30
     name rthumb
     direction -0.707107 -6.34826e-011 0.707107   
     length 0.579358   
     axis -90 -45 -2.85299e-015   XYZ
    dof rx rz
    limits (-45.0 45.0)
           (-45.0 45.0)
  end
:hierarchy
  begin
    root lhipjoint rhipjoint lowerback
    lhipjoint lfemur
    lfemur ltibia
    ltibia lfoot
    lfoot ltoes
    rhipjoint rfemur
    rfemur rtibia
    rtibia rfoot
    rfoot rtoes
    lowerback upperback
    upperback thorax
    thorax lowerneck lclavicle rclavicle
    lowerneck upperneck
    upperneck head
    lclavicle lhumerus
    lhumerus lradius
    lradius lwrist
    lwrist lhand lthumb
    lhand lfingers
    rclavicle rhumerus
    rhumerus rradius
    rradius rwrist
    rwrist rhand rthumb
    rhand rfingers
  end

#!OML:ASF H:\IndianDance\Patient Classification 1\Patient 1\Session 1\dancer.ASF
:FULLY-SPECIFIED
:DEGREES
1867
root 5.12255 15.1547 -9.3974 -173.713 1.62481 -180.278
lowerback 12.3481 0.217891 4.57874
upperback -8.8163 1.65228 -0.124252
thorax -16.9284 0.383447 -3.2159
lowerneck -10.4171 -11.643 -6.14884
upperneck -8.60873 -15.8316 10.6502
head 0.428248 -8.21662 3.76775
rclavicle 1.49089e-016 -1.90833e-014
rhumerus 53.3686 -34.5911 -20.6592
rradius 69.0314
rwrist -63.4568
rhand -18.4057 5.5118
rfingers 7.12502
rthumb 7.87881 -24.3214
lclavicle 1.49089e-016 -1.90833e-014
lhumerus 21.4355 -56.3913 -7.44194
lradius 117.408
lwrist 12.8751
lhand -53.1108 -27.0252
lfingers 7.12502
lthumb -25.5718 1.27825
rfemur -33.8253 -6.40524 21.0174
rtibia 69.0827
rfoot -27.1536 -10.82
rtoes -2.12767
lfemur -35.8528 19.0628 -29.8112
ltibia 44.3742
lfoot -18.6117 14.0285
ltoes 10.346
1868
root 5.14025 15.2227 -9.33412 -173.045 1.16188 -180.302
lowerback 12.3103 0.153306 4.62828
upperback -8.94794 1.61291 -0.0392527
thorax -17.0765 0.369978 -3.14031
lowerneck -10.7371 -11.7266 -6.37353
upperneck -9.16036 -15.9764 11.1765
head 0.3813 -8.3232 3.96917
rclavicle 5.56597e-015 -1.23246e-014
rhumerus 53.5681 -36.7607 -21.7221
rradius 67.025
rwrist -65.9785
rhand -17.2128 4.29869
rfingers 7.12502
rthumb 9.03 -25.488
lclavicle 5.56597e-015 -1.23246e-014
lhumerus 20.4709 -56.6742 -6.96056
lradius 117.776
lwrist 12.8442
lhand -53.22 -27.2892
lfingers 7.12502
lthumb -25.6764 0.999139
rfemur -33.2516 -5.4842 21.277
rtibia 66.0717
rfoot -27.432 -11.6971
rtoes -1.59981
lfemur -35.8757 18.2716 -29.9032
ltibia 42.7791
lfoot -19.2266 13.6992
ltoes 9.29224
1869
root 5.1562 15.2852 -9.2697 -172.352 0.681076 -180.31
lowerback 12.2609 0.0866119 4.71156
upperback -9.0714 1.57991 0.0641462
thorax -17.207 0.35805 -3.06349
lowerneck -11.0414 -11.8152 -6.6249
upperneck -9.70758 -16.1229 11.6849
head 0.334443 -8.43006 4.1712
rclavicle 1.63997e-015 -3.97569e-016
rhumerus 53.6678 -38.8392 -22.6579
rradius 64.9609
rwrist -68.1902
rhand -16.2469 3.17713
rfingers 7.12502
rthumb 9.96192 -26.5671
lclavicle 1.63997e-015 -3.97569e-016
lhumerus 19.5243 -56.9603 -6.50081
lradius 118.149
lwrist 12.8823
lhand -53.3289 -27.5736
lfingers 7.12502
lthumb -25.7808 0.699659
rfemur -32.7122 -4.53145 21.4798
rtibia 62.8386
rfoot -27.7649 -12.5279
rtoes -0.660243
lfemur -35.9608 17.4754 -29.9789
ltibia 41.2774
lfoot -20.1142 13.1759
ltoes 7.68462
1870
root 5.17028 15.3413 -9.2043 -171.639 0.182509 -180.301
lowerback 12.2026 0.0154116 4.83036
upperback -9.18413 1.54997 0.18553
thorax -17.3186 0.345753 -2.98606
lowerneck -11.3505 -11.9062 -6.88398
upperneck -10.2298 -16.2685 12.1624
head 0.294788 -8.53484 4.36419
rclavicle 7.05686e-015 -2.26615e-014
rhumerus 53.6868 -40.8183 -23.483
rradius 62.8297
rwrist -70.0802
rhand -15.4875 2.11978
rfingers 7.12502
rthumb 10.6945 -27.588
lclavicle 7.05686e-015 -2.26615e-014
lhumerus 18.6123 -57.2387 -6.07983
lradius 118.526
lwrist 12.9827
lhand -53.4412 -27.8792
lfingers 7.12502
lthumb -25.8883 0.378377
rfemur -32.223 -3.54234 21.6254
rtibia 59.4287
rfoot -28.0279 -13.476
rtoes -0.186369
lfemur -36.1333 16.6646 -30.031
ltibia 39.9201
lfoot -21.1769 12.4585
ltoes 5.43697
1871
root 5.18271 15.3889 -9.13773 -170.906 -0.331607 -180.274
lowerback 12.139 0.599708 5.12794
upperback -9.29431 1.36928 0.237539
thorax -17.3898 -0.1976 -2.91028
lowerneck -11.7601 -12.0015 -7.10178
upperneck -10.7561 -16.3719 12.9041
head 0.300309 -8.62213 4.1928
rclavicle -2.98177e-016 -1.35174e-014
rhumerus 53.6286 -42.6835 -24.2113
rradius 60.637
rwrist -71.674
rhand -14.9219 1.11753
rfingers 7.12502
rthumb 11.24 -28.5613
lclavicle -2.98177e-016 -1.35174e-014
lhumerus 17.755 -57.5066 -5.72355
lradius 118.888
lwrist 13.098
lhand -53.5592 -28.1874
lfingers 7.12502
lthumb -26.0013 0.0536427
rfemur -31.8021 -2.53245 21.7186
rtibia 55.9523
rfoot -27.9962 -14.4935
rtoes -0.468151
lfemur -36.42 15.8496 -30.0644
ltibia 38.7527
lfoot -22.4262 11.523
ltoes 3.06683
1872
root 5.19393 15.427 -9.06952 -170.153 -0.858626 -180.231
lowerback 12.0681 0.548635 5.31694
upperback -9.39065 1.33956 0.385496
thorax -17.4705 -0.232836 -2.83419
lowerneck -12.0707 -12.0966 -7.35305
upperneck -11.2175 -16.5095 13.3416
head 0.283862 -8.71952 4.34059
rclavicle 7.00716e-015 -2.66371e-014
rhumerus 53.4907 -44.4398 -24.8399
rradius 58.3975
rwrist -73.0049
rhand -14.5137 0.157371
rfingers 7.12502
rthumb 11.6337 -29.4997
lclavicle 7.00716e-015 -2.66371e-014
lhumerus 16.9822 -57.7535 -5.44598
lradius 119.221
lwrist 13.1921
lhand -53.6857 -28.4812
lfingers 7.12502
lthumb -26.1225 -0.258
rfemur -31.4647 -1.49176 21.7532
rtibia 52.5705
rfoot -27.9184 -15.3662
rtoes -0.764629
lfemur -36.8421 15.0388 -30.0897
ltibia 37.8049
lfoot -23.7561 10.4568
ltoes 0.506227
1873
root 5.20431 15.456 -8.99919 -169.386 -1.39235 -180.177
lowerback 12 0.494125 5.52323
upperback -9.47591 1.3109 0.547172
thorax -17.5396 -0.267721 -2.75201
lowerneck -12.3833 -12.1893 -7.58539
upperneck -11.6317 -16.6408 13.7436
head 0.277123 -8.81088 4.47388
rclavicle -6.95746e-016 1.82882e-014
rhumerus 53.2936 -46.0795 -25.4072
rradius 56.127
rwrist -74.0883
rhand -14.231 -0.764518
rfingers 7.12502
rthumb 11.9064 -30.406
lclavicle -6.95746e-016 1.82882e-014
lhumerus 16.2998 -57.9706 -5.25567
lradius 119.513
lwrist 13.2464
lhand -53.7982 -28.7658
lfingers 7.12502
lthumb -26.2301 -0.558579
rfemur -31.2389 -0.441616 21.7418
rtibia 49.4459
rfoot -27.7996 -16.0417
rtoes -1.0886
lfemur -37.3959 14.2347 -30.1096
ltibia 37.0777
lfoot -25.0675 9.41505
ltoes -2.30302
1874
root 5.21407 15.4786 -8.92596 -168.607 -1.93054 -180.125
lowerback 11.9421 0.441042 5.72918
upperback -9.54945 1.2864 0.714811
thorax -17.6006 -0.299262 -2.66386
lowerneck -12.683 -12.2883 -7.80661
upperneck -12.0088 -16.7769 14.1329
head 0.278774 -8.90229 4.60038
rclavicle 1.83876e-015 4.45278e-014
rhumerus 52.9847 -47.6133 -25.873
rradius 53.8676
rwrist -74.9671
rhand -14.0688 -1.64735
rfingers 7.12502
rthumb 12.0628 -31.2797
lclavicle 1.83876e-015 4.45278e-014
lhumerus 15.7343 -58.1566 -5.15621
lradius 119.748
lwrist 13.2374
lhand -53.8802 -29.0568
lfingers 7.12502
lthumb -26.3086 -0.861241
rfemur -31.1682 0.566069 21.6938
rtibia 46.7332
rfoot -27.629 -16.5775
rtoes -1.41762
lfemur -38.0609 13.4248 -30.1325
ltibia 36.5435
lfoot -26.2852 8.52831
ltoes -5.37369
1875
root 5.22329 15.4993 -8.84879 -167.828 -2.46412 -180.082
lowerback 11.9098 0.382015 5.92126
upperback -9.60884 1.25498 0.88707
thorax -17.6619 -0.330731 -2.56111
lowerneck -12.9476 -12.3795 -8.01101
upperneck -12.3675 -16.9014 14.5185
head 0.279033 -8.98779 4.72564
rclavicle -1.05356e-014 -1.51076e-014
rhumerus 52.5742 -49.0369 -26.2718
rradius 51.6452
rwrist -75.6385
rhand -13.991 -2.47723
rfingers 7.12502
rthumb 12.1378 -32.1051
lclavicle -1.05356e-014 -1.51076e-014
lhumerus 15.2415 -58.31 -5.11951
lradius 119.931
lwrist 13.17
lhand -53.9346 -29.3674
lfingers 7.12502
lthumb -26.3607 -1.17966
rfemur -31.2782 1.49212 21.6197
rtibia 44.5291
rfoot -27.5117 -16.9904
rtoes -1.54128
lfemur -38.7939 12.5919 -30.1506
ltibia 36.1614
lfoot -27.3386 7.86675
ltoes -8.61222
